# xmcd
#
# Track frame offsets: 
#        150
#        13851
#        27226
#        39387
#        51346
#        62431
#        73250
#        85372
#        95266
#        109321
#        121460
#        134304
#        148240
#        162103
#        172295
#        186231
#        196697
#        209457
#        219776
#        230475
#        242111
#        251366
#        265370
#        277000
#        288712
#
# Disc length: 4023 seconds
#
# Revision: 0
# Processed by: cddbd v1.5.2PL0 Copyright (c) Steve Scherf et al.
# Submitted via: ExactAudioCopy v0.95a5
#
DISCID=830fb519
DTITLE=Various Artist - 75 Love Songs [CD 1)
DYEAR=2006
DGENRE=Oldies
TTITLE0=Bing Crsby with Grace Kelly - True Love
TTITLE1=Dean Martin and Margaret Whiting - I´m In Love With You
TTITLE2=The Platters - Only You
TTITLE3=Alma Cogan - My Love, My Love
TTITLE4=The Hilltoppers - So Tired
TTITLE5=Frankie Laine - A Woman In Love
TTITLE6=Joni James - You Are My Love
TTITLE7=Carl Smith with June Carter - Time´s A Wastin´
TTITLE8=Doris Day - I´ll Never Stop Loving You
TTITLE9=Dean Martin - Sway
TTITLE10=Georgia Gibbs - Goodbye To Rome
TTITLE11=Nat King Cole - If I Nay
TTITLE12=The Hilltoppers - From The Vine Came The Grape
TTITLE13=Jo Stafford and Gordon Mcrae - Tea For Two
TTITLE14=Frank Sinatra - Violets For You Furs
TTITLE15=The Four Tunes - Maria
TTITLE16=Guy Mitchell and Mitch Miller - My Heart Cries For You
TTITLE17=The Gaylords - Isle Of Capri
TTITLE18=Perry Como and Jaye P. Morgan - Two Lost Souls
TTITLE19=Teresa Brewer - Let Me Go Lover
TTITLE20=The Four Knights - I Get So Lonely
TTITLE21=Alma Cogan - I Went To Your Wedding
TTITLE22=The Clovers - Blue Velvet
TTITLE23=Frank Sinatra - The Girl Next Door
TTITLE24=Les Paul And Mary Ford - Vaya Con Dios
EXTD=
EXTT0=
EXTT1=
EXTT2=
EXTT3=
EXTT4=
EXTT5=
EXTT6=
EXTT7=
EXTT8=
EXTT9=
EXTT10=
EXTT11=
EXTT12=
EXTT13=
EXTT14=
EXTT15=
EXTT16=
EXTT17=
EXTT18=
EXTT19=
EXTT20=
EXTT21=
EXTT22=
EXTT23=
EXTT24=
PLAYORDER=
